<mxfile host="Electron" modified="2023-10-17T07:26:29.517Z" agent="Mozilla/5.0 (Windows NT 10.0; Win64; x64) AppleWebKit/537.36 (KHTML, like Gecko) draw.io/22.0.2 Chrome/114.0.5735.289 Electron/25.8.4 Safari/537.36" etag="aDx3QHKLXLx30qVaMagv" version="22.0.2" type="device">
  <diagram name="Page-1" id="AO_tooTES-Yq6Qn2EYCC">
    <mxGraphModel dx="1377" dy="1353" grid="1" gridSize="10" guides="1" tooltips="1" connect="1" arrows="1" fold="1" page="0" pageScale="1" pageWidth="827" pageHeight="1169" math="0" shadow="0">
      <root>
        <mxCell id="0" />
        <mxCell id="1" parent="0" />
        <mxCell id="McyiOmgydggijr84Mx8Z-12" value="" style="rounded=1;whiteSpace=wrap;html=1;arcSize=2;fillColor=none;movable=1;resizable=1;rotatable=1;deletable=1;editable=1;locked=0;connectable=1;labelBackgroundColor=none;strokeColor=#0F8B8D;fontColor=#143642;" vertex="1" parent="1">
          <mxGeometry x="-280" y="560" width="1000" height="520" as="geometry" />
        </mxCell>
        <mxCell id="McyiOmgydggijr84Mx8Z-40" style="edgeStyle=none;shape=connector;rounded=0;orthogonalLoop=1;jettySize=auto;html=1;entryX=0.5;entryY=1;entryDx=0;entryDy=0;labelBackgroundColor=none;strokeColor=#A8201A;align=center;verticalAlign=middle;fontFamily=Helvetica;fontSize=11;fontColor=default;startArrow=none;startFill=0;endArrow=none;endFill=0;" edge="1" parent="1" source="McyiOmgydggijr84Mx8Z-1" target="McyiOmgydggijr84Mx8Z-17">
          <mxGeometry relative="1" as="geometry" />
        </mxCell>
        <mxCell id="McyiOmgydggijr84Mx8Z-41" style="edgeStyle=none;shape=connector;rounded=0;orthogonalLoop=1;jettySize=auto;html=1;entryX=0.5;entryY=1;entryDx=0;entryDy=0;labelBackgroundColor=none;strokeColor=#A8201A;align=center;verticalAlign=middle;fontFamily=Helvetica;fontSize=11;fontColor=default;startArrow=none;startFill=0;endArrow=none;endFill=0;" edge="1" parent="1" source="McyiOmgydggijr84Mx8Z-1" target="McyiOmgydggijr84Mx8Z-19">
          <mxGeometry relative="1" as="geometry" />
        </mxCell>
        <mxCell id="McyiOmgydggijr84Mx8Z-42" style="edgeStyle=none;shape=connector;rounded=0;orthogonalLoop=1;jettySize=auto;html=1;entryX=0.5;entryY=1;entryDx=0;entryDy=0;labelBackgroundColor=none;strokeColor=#A8201A;align=center;verticalAlign=middle;fontFamily=Helvetica;fontSize=11;fontColor=default;startArrow=none;startFill=0;endArrow=none;endFill=0;" edge="1" parent="1" source="McyiOmgydggijr84Mx8Z-1" target="McyiOmgydggijr84Mx8Z-2">
          <mxGeometry relative="1" as="geometry" />
        </mxCell>
        <mxCell id="McyiOmgydggijr84Mx8Z-43" style="edgeStyle=none;shape=connector;rounded=0;orthogonalLoop=1;jettySize=auto;html=1;entryX=0.5;entryY=1;entryDx=0;entryDy=0;labelBackgroundColor=none;strokeColor=#A8201A;align=center;verticalAlign=middle;fontFamily=Helvetica;fontSize=11;fontColor=default;startArrow=none;startFill=0;endArrow=none;endFill=0;" edge="1" parent="1" source="McyiOmgydggijr84Mx8Z-1" target="McyiOmgydggijr84Mx8Z-20">
          <mxGeometry relative="1" as="geometry" />
        </mxCell>
        <mxCell id="McyiOmgydggijr84Mx8Z-44" style="edgeStyle=none;shape=connector;rounded=0;orthogonalLoop=1;jettySize=auto;html=1;entryX=0.5;entryY=0;entryDx=0;entryDy=0;labelBackgroundColor=none;strokeColor=#A8201A;align=center;verticalAlign=middle;fontFamily=Helvetica;fontSize=11;fontColor=default;startArrow=none;startFill=0;endArrow=none;endFill=0;" edge="1" parent="1" source="McyiOmgydggijr84Mx8Z-1" target="McyiOmgydggijr84Mx8Z-21">
          <mxGeometry relative="1" as="geometry" />
        </mxCell>
        <mxCell id="McyiOmgydggijr84Mx8Z-45" style="edgeStyle=none;shape=connector;rounded=0;orthogonalLoop=1;jettySize=auto;html=1;entryX=0.5;entryY=0;entryDx=0;entryDy=0;labelBackgroundColor=none;strokeColor=#A8201A;align=center;verticalAlign=middle;fontFamily=Helvetica;fontSize=11;fontColor=default;startArrow=none;startFill=0;endArrow=none;endFill=0;" edge="1" parent="1" source="McyiOmgydggijr84Mx8Z-1" target="McyiOmgydggijr84Mx8Z-74">
          <mxGeometry relative="1" as="geometry" />
        </mxCell>
        <mxCell id="McyiOmgydggijr84Mx8Z-46" style="edgeStyle=none;shape=connector;rounded=0;orthogonalLoop=1;jettySize=auto;html=1;entryX=0.5;entryY=0;entryDx=0;entryDy=0;labelBackgroundColor=none;strokeColor=#A8201A;align=center;verticalAlign=middle;fontFamily=Helvetica;fontSize=11;fontColor=default;startArrow=none;startFill=0;endArrow=none;endFill=0;" edge="1" parent="1" source="McyiOmgydggijr84Mx8Z-1" target="McyiOmgydggijr84Mx8Z-23">
          <mxGeometry relative="1" as="geometry" />
        </mxCell>
        <mxCell id="McyiOmgydggijr84Mx8Z-50" style="edgeStyle=none;shape=connector;rounded=0;orthogonalLoop=1;jettySize=auto;html=1;entryX=0;entryY=0;entryDx=0;entryDy=0;labelBackgroundColor=none;strokeColor=#A8201A;align=center;verticalAlign=middle;fontFamily=Helvetica;fontSize=11;fontColor=default;startArrow=none;startFill=0;endArrow=none;endFill=0;" edge="1" parent="1" source="McyiOmgydggijr84Mx8Z-1" target="McyiOmgydggijr84Mx8Z-48">
          <mxGeometry relative="1" as="geometry" />
        </mxCell>
        <mxCell id="McyiOmgydggijr84Mx8Z-53" style="edgeStyle=none;shape=connector;rounded=0;orthogonalLoop=1;jettySize=auto;html=1;entryX=0.5;entryY=0;entryDx=0;entryDy=0;labelBackgroundColor=none;strokeColor=#A8201A;align=center;verticalAlign=middle;fontFamily=Helvetica;fontSize=11;fontColor=default;startArrow=none;startFill=0;endArrow=none;endFill=0;" edge="1" parent="1" source="McyiOmgydggijr84Mx8Z-1" target="McyiOmgydggijr84Mx8Z-52">
          <mxGeometry relative="1" as="geometry" />
        </mxCell>
        <mxCell id="McyiOmgydggijr84Mx8Z-1" value="Người dùng" style="shape=umlActor;verticalLabelPosition=bottom;verticalAlign=top;html=1;outlineConnect=0;labelBackgroundColor=none;fillColor=#FAE5C7;strokeColor=#0F8B8D;fontColor=#143642;" vertex="1" parent="1">
          <mxGeometry x="200" y="360" width="40" height="80" as="geometry" />
        </mxCell>
        <mxCell id="McyiOmgydggijr84Mx8Z-13" value="Ứng dụng theo dõi sức khỏe&lt;br&gt;phân hệ smartphone" style="text;html=1;strokeColor=none;fillColor=none;align=center;verticalAlign=middle;whiteSpace=wrap;rounded=0;fontStyle=1;fontSize=15;labelBackgroundColor=none;fontColor=#143642;" vertex="1" parent="1">
          <mxGeometry x="280" y="570" width="210" height="30" as="geometry" />
        </mxCell>
        <mxCell id="McyiOmgydggijr84Mx8Z-21" value="Đồng bộ qua&lt;br&gt;kết nối Bluetooth" style="ellipse;whiteSpace=wrap;html=1;labelBackgroundColor=none;fillColor=#FAE5C7;strokeColor=#0F8B8D;fontColor=#143642;" vertex="1" parent="1">
          <mxGeometry x="-200" y="600" width="120" height="40" as="geometry" />
        </mxCell>
        <mxCell id="McyiOmgydggijr84Mx8Z-76" style="edgeStyle=none;shape=connector;rounded=0;orthogonalLoop=1;jettySize=auto;html=1;entryX=0.5;entryY=0;entryDx=0;entryDy=0;labelBackgroundColor=none;strokeColor=#A8201A;align=center;verticalAlign=middle;fontFamily=Helvetica;fontSize=11;fontColor=default;startArrow=none;startFill=0;endArrow=classic;endFill=1;dashed=1;" edge="1" parent="1" source="McyiOmgydggijr84Mx8Z-22" target="McyiOmgydggijr84Mx8Z-62">
          <mxGeometry relative="1" as="geometry" />
        </mxCell>
        <mxCell id="McyiOmgydggijr84Mx8Z-78" value="&amp;lt;&amp;lt;include&amp;gt;&amp;gt;" style="edgeLabel;html=1;align=center;verticalAlign=middle;resizable=0;points=[];fontSize=11;fontFamily=Helvetica;fontColor=#143642;labelBackgroundColor=none;" vertex="1" connectable="0" parent="McyiOmgydggijr84Mx8Z-76">
          <mxGeometry x="-0.25" y="-2" relative="1" as="geometry">
            <mxPoint as="offset" />
          </mxGeometry>
        </mxCell>
        <mxCell id="McyiOmgydggijr84Mx8Z-22" value="Đăng nhập vào&lt;br&gt;mạng xã hội" style="ellipse;whiteSpace=wrap;html=1;labelBackgroundColor=none;fillColor=#FAE5C7;strokeColor=#0F8B8D;fontColor=#143642;" vertex="1" parent="1">
          <mxGeometry x="-240" y="760" width="120" height="40" as="geometry" />
        </mxCell>
        <mxCell id="McyiOmgydggijr84Mx8Z-23" value="Xem thông tin&lt;br&gt;tổng hợp" style="ellipse;whiteSpace=wrap;html=1;labelBackgroundColor=none;fillColor=#FAE5C7;strokeColor=#0F8B8D;fontColor=#143642;" vertex="1" parent="1">
          <mxGeometry x="-80" y="760" width="120" height="40" as="geometry" />
        </mxCell>
        <mxCell id="McyiOmgydggijr84Mx8Z-56" style="edgeStyle=none;shape=connector;rounded=0;orthogonalLoop=1;jettySize=auto;html=1;entryX=0.5;entryY=1;entryDx=0;entryDy=0;labelBackgroundColor=none;strokeColor=#A8201A;align=center;verticalAlign=middle;fontFamily=Helvetica;fontSize=11;fontColor=default;startArrow=none;startFill=0;endArrow=classic;endFill=1;dashed=1;" edge="1" parent="1" source="McyiOmgydggijr84Mx8Z-24" target="McyiOmgydggijr84Mx8Z-23">
          <mxGeometry relative="1" as="geometry" />
        </mxCell>
        <mxCell id="McyiOmgydggijr84Mx8Z-91" value="&amp;lt;&amp;lt;extend&amp;gt;&amp;gt;" style="edgeLabel;html=1;align=center;verticalAlign=middle;resizable=0;points=[];fontSize=11;fontFamily=Helvetica;fontColor=#143642;labelBackgroundColor=none;" vertex="1" connectable="0" parent="McyiOmgydggijr84Mx8Z-56">
          <mxGeometry x="0.025" y="1" relative="1" as="geometry">
            <mxPoint as="offset" />
          </mxGeometry>
        </mxCell>
        <mxCell id="McyiOmgydggijr84Mx8Z-24" value="Xem phân tích&lt;br&gt;thống kê cụ thể" style="ellipse;whiteSpace=wrap;html=1;labelBackgroundColor=none;fillColor=#FAE5C7;strokeColor=#0F8B8D;fontColor=#143642;" vertex="1" parent="1">
          <mxGeometry x="-20" y="840" width="120" height="40" as="geometry" />
        </mxCell>
        <mxCell id="McyiOmgydggijr84Mx8Z-68" style="edgeStyle=none;shape=connector;rounded=0;orthogonalLoop=1;jettySize=auto;html=1;exitX=1;exitY=0.5;exitDx=0;exitDy=0;entryX=0;entryY=0.5;entryDx=0;entryDy=0;labelBackgroundColor=none;strokeColor=#A8201A;align=center;verticalAlign=middle;fontFamily=Helvetica;fontSize=11;fontColor=default;startArrow=none;startFill=0;endArrow=classic;endFill=1;dashed=1;" edge="1" parent="1" source="McyiOmgydggijr84Mx8Z-25" target="McyiOmgydggijr84Mx8Z-66">
          <mxGeometry relative="1" as="geometry" />
        </mxCell>
        <mxCell id="McyiOmgydggijr84Mx8Z-81" value="&amp;lt;&amp;lt;include&amp;gt;&amp;gt;" style="edgeLabel;html=1;align=center;verticalAlign=middle;resizable=0;points=[];fontSize=11;fontFamily=Helvetica;fontColor=#143642;labelBackgroundColor=none;" vertex="1" connectable="0" parent="McyiOmgydggijr84Mx8Z-68">
          <mxGeometry x="-0.1667" relative="1" as="geometry">
            <mxPoint x="7" y="-10" as="offset" />
          </mxGeometry>
        </mxCell>
        <mxCell id="McyiOmgydggijr84Mx8Z-92" style="edgeStyle=orthogonalEdgeStyle;shape=connector;rounded=0;orthogonalLoop=1;jettySize=auto;html=1;entryX=1;entryY=0.5;entryDx=0;entryDy=0;labelBackgroundColor=none;strokeColor=#A8201A;align=center;verticalAlign=middle;fontFamily=Helvetica;fontSize=11;fontColor=default;startArrow=none;startFill=0;endArrow=block;endFill=0;" edge="1" parent="1" source="McyiOmgydggijr84Mx8Z-25" target="McyiOmgydggijr84Mx8Z-24">
          <mxGeometry relative="1" as="geometry" />
        </mxCell>
        <mxCell id="McyiOmgydggijr84Mx8Z-25" value="Xem lộ trình&lt;br&gt;di chuyển" style="ellipse;whiteSpace=wrap;html=1;labelBackgroundColor=none;fillColor=#FAE5C7;strokeColor=#0F8B8D;fontColor=#143642;" vertex="1" parent="1">
          <mxGeometry x="180" y="840" width="120" height="40" as="geometry" />
        </mxCell>
        <mxCell id="McyiOmgydggijr84Mx8Z-60" style="edgeStyle=none;shape=connector;rounded=0;orthogonalLoop=1;jettySize=auto;html=1;entryX=1;entryY=0.5;entryDx=0;entryDy=0;labelBackgroundColor=none;strokeColor=#A8201A;align=center;verticalAlign=middle;fontFamily=Helvetica;fontSize=11;fontColor=default;startArrow=none;startFill=0;endArrow=classic;endFill=1;dashed=1;" edge="1" parent="1" source="McyiOmgydggijr84Mx8Z-26" target="McyiOmgydggijr84Mx8Z-59">
          <mxGeometry relative="1" as="geometry" />
        </mxCell>
        <mxCell id="McyiOmgydggijr84Mx8Z-88" value="&amp;lt;&amp;lt;extend&amp;gt;&amp;gt;" style="edgeLabel;html=1;align=center;verticalAlign=middle;resizable=0;points=[];fontSize=11;fontFamily=Helvetica;fontColor=#143642;labelBackgroundColor=none;" vertex="1" connectable="0" parent="McyiOmgydggijr84Mx8Z-60">
          <mxGeometry x="0.125" y="-3" relative="1" as="geometry">
            <mxPoint x="5" y="-7" as="offset" />
          </mxGeometry>
        </mxCell>
        <mxCell id="McyiOmgydggijr84Mx8Z-26" value="Xem thống kê&lt;br&gt;chi tiết" style="ellipse;whiteSpace=wrap;html=1;labelBackgroundColor=none;fillColor=#FAE5C7;strokeColor=#0F8B8D;fontColor=#143642;" vertex="1" parent="1">
          <mxGeometry x="380" y="920" width="120" height="40" as="geometry" />
        </mxCell>
        <mxCell id="McyiOmgydggijr84Mx8Z-95" style="edgeStyle=orthogonalEdgeStyle;shape=connector;rounded=0;orthogonalLoop=1;jettySize=auto;html=1;exitX=0.5;exitY=0;exitDx=0;exitDy=0;entryX=0.5;entryY=1;entryDx=0;entryDy=0;labelBackgroundColor=none;strokeColor=#A8201A;align=center;verticalAlign=middle;fontFamily=Helvetica;fontSize=11;fontColor=default;startArrow=none;startFill=0;endArrow=block;endFill=0;" edge="1" parent="1" source="McyiOmgydggijr84Mx8Z-27" target="McyiOmgydggijr84Mx8Z-26">
          <mxGeometry relative="1" as="geometry" />
        </mxCell>
        <mxCell id="McyiOmgydggijr84Mx8Z-27" value="Thống kê về&lt;br&gt;tốc độ" style="ellipse;whiteSpace=wrap;html=1;labelBackgroundColor=none;fillColor=#FAE5C7;strokeColor=#0F8B8D;fontColor=#143642;" vertex="1" parent="1">
          <mxGeometry x="280" y="1000" width="120" height="40" as="geometry" />
        </mxCell>
        <mxCell id="McyiOmgydggijr84Mx8Z-94" style="edgeStyle=orthogonalEdgeStyle;shape=connector;rounded=0;orthogonalLoop=1;jettySize=auto;html=1;exitX=0.5;exitY=0;exitDx=0;exitDy=0;entryX=0.5;entryY=1;entryDx=0;entryDy=0;labelBackgroundColor=none;strokeColor=#A8201A;align=center;verticalAlign=middle;fontFamily=Helvetica;fontSize=11;fontColor=default;startArrow=none;startFill=0;endArrow=block;endFill=0;" edge="1" parent="1" source="McyiOmgydggijr84Mx8Z-28" target="McyiOmgydggijr84Mx8Z-26">
          <mxGeometry relative="1" as="geometry" />
        </mxCell>
        <mxCell id="McyiOmgydggijr84Mx8Z-28" value="Thống kê về&lt;br&gt;nhịp tim" style="ellipse;whiteSpace=wrap;html=1;labelBackgroundColor=none;fillColor=#FAE5C7;strokeColor=#0F8B8D;fontColor=#143642;" vertex="1" parent="1">
          <mxGeometry x="480" y="1000" width="120" height="40" as="geometry" />
        </mxCell>
        <mxCell id="McyiOmgydggijr84Mx8Z-3" value="" style="rounded=1;whiteSpace=wrap;html=1;arcSize=2;fillColor=none;movable=1;resizable=1;rotatable=1;deletable=1;editable=1;locked=0;connectable=1;labelBackgroundColor=none;strokeColor=#0F8B8D;fontColor=#143642;" vertex="1" parent="1">
          <mxGeometry x="-120" y="120" width="680" height="160" as="geometry" />
        </mxCell>
        <mxCell id="McyiOmgydggijr84Mx8Z-4" value="Ứng dụng theo dõi sức khỏe&lt;br&gt;phân hệ smartwatch" style="text;html=1;strokeColor=none;fillColor=none;align=center;verticalAlign=middle;whiteSpace=wrap;rounded=0;fontStyle=1;fontSize=15;labelBackgroundColor=none;fontColor=#143642;" vertex="1" parent="1">
          <mxGeometry x="115" y="130" width="210" height="30" as="geometry" />
        </mxCell>
        <mxCell id="McyiOmgydggijr84Mx8Z-17" value="Tự động bắt đầu&lt;br&gt;theo dõi" style="ellipse;whiteSpace=wrap;html=1;labelBackgroundColor=none;fillColor=#FAE5C7;strokeColor=#0F8B8D;fontColor=#143642;" vertex="1" parent="1">
          <mxGeometry x="-80" y="200" width="120" height="40" as="geometry" />
        </mxCell>
        <mxCell id="McyiOmgydggijr84Mx8Z-19" value="Xem các thông tin&lt;br&gt;hiện thời" style="ellipse;whiteSpace=wrap;html=1;labelBackgroundColor=none;fillColor=#FAE5C7;strokeColor=#0F8B8D;fontColor=#143642;" vertex="1" parent="1">
          <mxGeometry x="80" y="200" width="120" height="40" as="geometry" />
        </mxCell>
        <mxCell id="McyiOmgydggijr84Mx8Z-2" value="Ra lệnh để dừng&lt;br&gt;theo dõi" style="ellipse;whiteSpace=wrap;html=1;labelBackgroundColor=none;fillColor=#FAE5C7;strokeColor=#0F8B8D;fontColor=#143642;" vertex="1" parent="1">
          <mxGeometry x="240" y="200" width="120" height="40" as="geometry" />
        </mxCell>
        <mxCell id="McyiOmgydggijr84Mx8Z-20" value="Đồng bộ qua&lt;br&gt;kết nối Bluetooth" style="ellipse;whiteSpace=wrap;html=1;labelBackgroundColor=none;fillColor=#FAE5C7;strokeColor=#0F8B8D;fontColor=#143642;" vertex="1" parent="1">
          <mxGeometry x="400" y="200" width="120" height="40" as="geometry" />
        </mxCell>
        <mxCell id="McyiOmgydggijr84Mx8Z-48" value="Tạo lịch biểu&lt;br&gt;luyện tập" style="ellipse;whiteSpace=wrap;html=1;labelBackgroundColor=none;fillColor=#FAE5C7;strokeColor=#0F8B8D;fontColor=#143642;" vertex="1" parent="1">
          <mxGeometry x="120" y="720" width="120" height="40" as="geometry" />
        </mxCell>
        <mxCell id="McyiOmgydggijr84Mx8Z-84" style="edgeStyle=none;shape=connector;rounded=0;orthogonalLoop=1;jettySize=auto;html=1;exitX=0;exitY=0.5;exitDx=0;exitDy=0;entryX=1;entryY=1;entryDx=0;entryDy=0;labelBackgroundColor=none;strokeColor=#A8201A;align=center;verticalAlign=middle;fontFamily=Helvetica;fontSize=11;fontColor=default;startArrow=none;startFill=0;endArrow=classic;endFill=1;dashed=1;" edge="1" parent="1" source="McyiOmgydggijr84Mx8Z-49" target="McyiOmgydggijr84Mx8Z-48">
          <mxGeometry relative="1" as="geometry" />
        </mxCell>
        <mxCell id="McyiOmgydggijr84Mx8Z-86" value="&amp;lt;&amp;lt;extend&amp;gt;&amp;gt;" style="edgeLabel;html=1;align=center;verticalAlign=middle;resizable=0;points=[];fontSize=11;fontFamily=Helvetica;fontColor=#143642;labelBackgroundColor=none;" vertex="1" connectable="0" parent="McyiOmgydggijr84Mx8Z-84">
          <mxGeometry x="-0.0377" y="-2" relative="1" as="geometry">
            <mxPoint x="-16" y="6" as="offset" />
          </mxGeometry>
        </mxCell>
        <mxCell id="McyiOmgydggijr84Mx8Z-49" value="Nhận nhắc nhở&lt;br&gt;sắp đến lịch" style="ellipse;whiteSpace=wrap;html=1;labelBackgroundColor=none;fillColor=#FAE5C7;strokeColor=#0F8B8D;fontColor=#143642;" vertex="1" parent="1">
          <mxGeometry x="280" y="760" width="120" height="40" as="geometry" />
        </mxCell>
        <mxCell id="McyiOmgydggijr84Mx8Z-55" style="edgeStyle=none;shape=connector;rounded=0;orthogonalLoop=1;jettySize=auto;html=1;exitX=1;exitY=1;exitDx=0;exitDy=0;entryX=0;entryY=0.5;entryDx=0;entryDy=0;labelBackgroundColor=none;strokeColor=#A8201A;align=center;verticalAlign=middle;fontFamily=Helvetica;fontSize=11;fontColor=default;startArrow=none;startFill=0;endArrow=classic;endFill=1;dashed=1;" edge="1" parent="1" source="McyiOmgydggijr84Mx8Z-52" target="McyiOmgydggijr84Mx8Z-54">
          <mxGeometry relative="1" as="geometry" />
        </mxCell>
        <mxCell id="McyiOmgydggijr84Mx8Z-85" value="&amp;lt;&amp;lt;include&amp;gt;&amp;gt;" style="edgeLabel;html=1;align=center;verticalAlign=middle;resizable=0;points=[];fontSize=11;fontFamily=Helvetica;fontColor=#143642;labelBackgroundColor=none;" vertex="1" connectable="0" parent="McyiOmgydggijr84Mx8Z-55">
          <mxGeometry x="-0.3711" y="4" relative="1" as="geometry">
            <mxPoint x="-12" y="11" as="offset" />
          </mxGeometry>
        </mxCell>
        <mxCell id="McyiOmgydggijr84Mx8Z-52" value="Đặt mục tiêu&lt;br&gt;luyện tập" style="ellipse;whiteSpace=wrap;html=1;labelBackgroundColor=none;fillColor=#FAE5C7;strokeColor=#0F8B8D;fontColor=#143642;" vertex="1" parent="1">
          <mxGeometry x="180" y="660" width="120" height="40" as="geometry" />
        </mxCell>
        <mxCell id="McyiOmgydggijr84Mx8Z-54" value="Nhận lời khuyên khi&lt;br&gt;chưa đạt mục tiêu" style="ellipse;whiteSpace=wrap;html=1;labelBackgroundColor=none;fillColor=#FAE5C7;strokeColor=#0F8B8D;fontColor=#143642;" vertex="1" parent="1">
          <mxGeometry x="340" y="700" width="160" height="40" as="geometry" />
        </mxCell>
        <mxCell id="McyiOmgydggijr84Mx8Z-93" style="edgeStyle=orthogonalEdgeStyle;shape=connector;rounded=0;orthogonalLoop=1;jettySize=auto;html=1;entryX=1;entryY=0.5;entryDx=0;entryDy=0;labelBackgroundColor=none;strokeColor=#A8201A;align=center;verticalAlign=middle;fontFamily=Helvetica;fontSize=11;fontColor=default;startArrow=none;startFill=0;endArrow=block;endFill=0;" edge="1" parent="1" source="McyiOmgydggijr84Mx8Z-59" target="McyiOmgydggijr84Mx8Z-24">
          <mxGeometry relative="1" as="geometry" />
        </mxCell>
        <mxCell id="McyiOmgydggijr84Mx8Z-59" value="Xem thống kê&lt;br&gt;tổng quát" style="ellipse;whiteSpace=wrap;html=1;labelBackgroundColor=none;fillColor=#FAE5C7;strokeColor=#0F8B8D;fontColor=#143642;" vertex="1" parent="1">
          <mxGeometry x="180" y="920" width="120" height="40" as="geometry" />
        </mxCell>
        <mxCell id="McyiOmgydggijr84Mx8Z-62" value="Tạo bài đăng" style="ellipse;whiteSpace=wrap;html=1;labelBackgroundColor=none;fillColor=#FAE5C7;strokeColor=#0F8B8D;fontColor=#143642;" vertex="1" parent="1">
          <mxGeometry x="-240" y="840" width="120" height="40" as="geometry" />
        </mxCell>
        <mxCell id="McyiOmgydggijr84Mx8Z-64" style="edgeStyle=none;shape=connector;rounded=0;orthogonalLoop=1;jettySize=auto;html=1;entryX=0;entryY=0.5;entryDx=0;entryDy=0;labelBackgroundColor=none;strokeColor=#A8201A;align=center;verticalAlign=middle;fontFamily=Helvetica;fontSize=11;fontColor=default;startArrow=none;startFill=0;endArrow=none;endFill=0;" edge="1" parent="1" source="McyiOmgydggijr84Mx8Z-63" target="McyiOmgydggijr84Mx8Z-62">
          <mxGeometry relative="1" as="geometry" />
        </mxCell>
        <mxCell id="McyiOmgydggijr84Mx8Z-73" style="edgeStyle=none;shape=connector;rounded=0;orthogonalLoop=1;jettySize=auto;html=1;entryX=0;entryY=0.5;entryDx=0;entryDy=0;labelBackgroundColor=none;strokeColor=#A8201A;align=center;verticalAlign=middle;fontFamily=Helvetica;fontSize=11;fontColor=default;startArrow=none;startFill=0;endArrow=none;endFill=0;" edge="1" parent="1" source="McyiOmgydggijr84Mx8Z-63" target="McyiOmgydggijr84Mx8Z-22">
          <mxGeometry relative="1" as="geometry" />
        </mxCell>
        <mxCell id="McyiOmgydggijr84Mx8Z-63" value="API mạng xã hội" style="shape=umlActor;verticalLabelPosition=bottom;verticalAlign=top;html=1;outlineConnect=0;labelBackgroundColor=none;fillColor=#FAE5C7;strokeColor=#0F8B8D;fontColor=#143642;" vertex="1" parent="1">
          <mxGeometry x="-360" y="820" width="40" height="80" as="geometry" />
        </mxCell>
        <mxCell id="McyiOmgydggijr84Mx8Z-66" value="Cung cấp bản đồ&lt;br&gt;trực quan" style="ellipse;whiteSpace=wrap;html=1;labelBackgroundColor=none;fillColor=#FAE5C7;strokeColor=#0F8B8D;fontColor=#143642;" vertex="1" parent="1">
          <mxGeometry x="380" y="840" width="120" height="40" as="geometry" />
        </mxCell>
        <mxCell id="McyiOmgydggijr84Mx8Z-70" style="edgeStyle=none;shape=connector;rounded=0;orthogonalLoop=1;jettySize=auto;html=1;entryX=1;entryY=0.5;entryDx=0;entryDy=0;labelBackgroundColor=none;strokeColor=#A8201A;align=center;verticalAlign=middle;fontFamily=Helvetica;fontSize=11;fontColor=default;startArrow=none;startFill=0;endArrow=classic;endFill=1;dashed=1;" edge="1" parent="1" source="McyiOmgydggijr84Mx8Z-69" target="McyiOmgydggijr84Mx8Z-54">
          <mxGeometry relative="1" as="geometry" />
        </mxCell>
        <mxCell id="McyiOmgydggijr84Mx8Z-87" value="&amp;lt;&amp;lt;extend&amp;gt;&amp;gt;" style="edgeLabel;html=1;align=center;verticalAlign=middle;resizable=0;points=[];fontSize=11;fontFamily=Helvetica;fontColor=#143642;labelBackgroundColor=none;" vertex="1" connectable="0" parent="McyiOmgydggijr84Mx8Z-70">
          <mxGeometry x="0.125" y="-3" relative="1" as="geometry">
            <mxPoint x="5" y="-7" as="offset" />
          </mxGeometry>
        </mxCell>
        <mxCell id="McyiOmgydggijr84Mx8Z-69" value="Điều chỉnh lại&lt;br&gt;mục tiêu" style="ellipse;whiteSpace=wrap;html=1;labelBackgroundColor=none;fillColor=#FAE5C7;strokeColor=#0F8B8D;fontColor=#143642;" vertex="1" parent="1">
          <mxGeometry x="580" y="700" width="120" height="40" as="geometry" />
        </mxCell>
        <mxCell id="McyiOmgydggijr84Mx8Z-72" style="edgeStyle=none;shape=connector;rounded=0;orthogonalLoop=1;jettySize=auto;html=1;entryX=1;entryY=0.5;entryDx=0;entryDy=0;labelBackgroundColor=none;strokeColor=#A8201A;align=center;verticalAlign=middle;fontFamily=Helvetica;fontSize=11;fontColor=default;startArrow=none;startFill=0;endArrow=none;endFill=0;" edge="1" parent="1" source="McyiOmgydggijr84Mx8Z-71" target="McyiOmgydggijr84Mx8Z-66">
          <mxGeometry relative="1" as="geometry" />
        </mxCell>
        <mxCell id="McyiOmgydggijr84Mx8Z-71" value="Dịch vụ&lt;br&gt;bản đồ trung gian" style="shape=umlActor;verticalLabelPosition=bottom;verticalAlign=top;html=1;outlineConnect=0;labelBackgroundColor=none;fillColor=#FAE5C7;strokeColor=#0F8B8D;fontColor=#143642;" vertex="1" parent="1">
          <mxGeometry x="760" y="820" width="40" height="80" as="geometry" />
        </mxCell>
        <mxCell id="McyiOmgydggijr84Mx8Z-75" style="edgeStyle=none;shape=connector;rounded=0;orthogonalLoop=1;jettySize=auto;html=1;exitX=0;exitY=1;exitDx=0;exitDy=0;entryX=0.5;entryY=0;entryDx=0;entryDy=0;labelBackgroundColor=none;strokeColor=#A8201A;align=center;verticalAlign=middle;fontFamily=Helvetica;fontSize=11;fontColor=default;startArrow=none;startFill=0;endArrow=classic;endFill=1;dashed=1;" edge="1" parent="1" source="McyiOmgydggijr84Mx8Z-74" target="McyiOmgydggijr84Mx8Z-22">
          <mxGeometry relative="1" as="geometry" />
        </mxCell>
        <mxCell id="McyiOmgydggijr84Mx8Z-77" value="&amp;lt;&amp;lt;include&amp;gt;&amp;gt;" style="edgeLabel;html=1;align=center;verticalAlign=middle;resizable=0;points=[];fontSize=11;fontFamily=Helvetica;fontColor=#143642;labelBackgroundColor=none;" vertex="1" connectable="0" parent="McyiOmgydggijr84Mx8Z-75">
          <mxGeometry x="-0.0396" y="-1" relative="1" as="geometry">
            <mxPoint x="-1" as="offset" />
          </mxGeometry>
        </mxCell>
        <mxCell id="McyiOmgydggijr84Mx8Z-74" value="Chia sẻ kết quả&lt;br&gt;hoạt động" style="ellipse;whiteSpace=wrap;html=1;labelBackgroundColor=none;fillColor=#FAE5C7;strokeColor=#0F8B8D;fontColor=#143642;" vertex="1" parent="1">
          <mxGeometry x="-140" y="680" width="120" height="40" as="geometry" />
        </mxCell>
      </root>
    </mxGraphModel>
  </diagram>
</mxfile>
